<?xml version="1.0" encoding="utf-8"?>
<!-- Generator: Adobe Illustrator 18.0.0, SVG Export Plug-In . SVG Version: 6.00 Build 0)  -->
<!DOCTYPE svg PUBLIC "-//W3C//DTD SVG 1.1//EN" "http://www.w3.org/Graphics/SVG/1.1/DTD/svg11.dtd">
<svg version="1.1" xmlns="http://www.w3.org/2000/svg" xmlns:xlink="http://www.w3.org/1999/xlink" x="0px" y="0px"
	 viewBox="0 0 940.3 414" enable-background="new 0 0 940.3 414" xml:space="preserve">
<g id="iss_floorplan">
	<g>
		<path fill="#FFFFFF" d="M940.9,0.7c0,138,0,275.9,0,414c-313.3,0-626.7,0-940.2,0c0-138,0-276,0-414
			C314.1,0.7,627.5,0.7,940.9,0.7z M133,254.3c0.5,1.7,1,3.2,1.4,4.8c0.4,1.7,0.5,3.6,0.9,5.3c0.7,3,5.4,7,8.3,7.1
			c11.3,0.5,22.6,0.9,33.9,1.4c6.3,0.3,12.7,0.5,19,0.8c6.5,0.3,12.8,0.1,18.3-4.4c2.6-2.2,6-4.3,9.3-4.8c5.9-0.8,11.9-0.4,17.9-0.4
			c9.5,0,19,0.2,28.4,0c1.7,0,4.4-1.3,4.9-2.6c1.4-3.8,3.7-4,6.7-3.4c-1.7,4.6-4.5,9.1-4.8,13.7c-0.6,9.6,0,19.4,0.6,29
			c0.3,5.2,0.6,10.6,5.7,14c0.6,0.4,0.9,2.6,0.5,3c-4.1,3.9-4.4,8.9-4,13.8c0.5,5.4,1.7,10.7,2.5,16.1c0.2,1.4,0.5,3,0,4.2
			c-2.3,5.8-2.8,11.7-2.6,17.8c0.1,2.7,1.4,4,4,4c9.4,0,18.7,0.1,28.1-0.1c1.3,0,3.7-1.5,3.7-2.4c0.2-4.9,0-9.8-0.3-14.6
			c-0.2-3.7-0.9-7.5-0.8-11.2c0.1-4.6,1.3-9.1,1.3-13.7c0-3.8-0.6-7.8-1.6-11.5c-0.6-2-2.5-3.7-4.1-5.9c6.9-1.1,9.1-6,9.9-11.5
			c0.5-3.2-0.6-6.6-0.4-9.9c0.6-12.2-2-23.9-5-35.5c4.8-1,8.3,1,11.2,5c2.4,3.2,5.6,5.9,8.2,9c2.7,3.2,6.4,3.9,9.4,2.1
			c3.8-2.2,7.6-1.7,11.4-1.7c15.5-0.1,31,0,46.4-0.1c4.6,0,9.3-1.4,13.6,1.2c0.4,0.2,0.9,0.1,1.4,0.1c10.4,0,20.9,0.4,31.3-0.2
			c5-0.3,10.4-1,12.3-7.8c0.8-2.9,3.8-5.5,6.4-7.5c0.7-0.6,3.4,1.8,5.3,2.2c8.6,1.9,17,1.9,25.1-2.1c8-3.9,15.9-6.3,24.5-0.5
			c4.6,3.1,9.4,6.2,11.1,11.2c2.3,6.8,6.6,7.5,12.3,6.9c0.1,0,0.3,0.2,0.9,0.6c-2.7,0.5-4.9,1-7.2,1.4c-3.2,0.7-5,2.4-5,5.9
			c0.1,5.4-0.1,10.8-0.2,16.2c0,5.4,2.3,7.8,7.7,8.1c1.4,0.1,2.9-0.3,4.3-0.1c4.2,0.6,8.4,1.3,12.6,2.1c0.8,0.2,1.8,1.3,1.9,2.1
			c0.5,3.3,0.8,6.6,0.8,9.9c0.1,6.2,0,12.3,0,18.5c0,4.9,4.3,9.8,8.7,9.8c5.9,0.1,11.8,0.1,17.6,0c5-0.1,7.8-3.2,7.8-8.2
			c0-9.3,0-18.7,0-28c0-1.3,0-2.6,0-3.9c3.4-0.6,6.5-1.1,9.5-1.6c4-0.6,7.9-1.3,11.9-1.8c1.7-0.2,3.4,0,5-0.1
			c2.7-0.1,4.3-1.5,4.3-4.3c0-6.7,0-13.4-0.1-20.2c0-2.4-1.4-3.6-3.8-4c-6.5-1-13.4,0.2-18.8-4c1.1-2.5,2.8-5.1,3.3-7.9
			c0.9-4.8,1.9-5.9,6.6-5.7c1.4,3.7,2.4,7.4,4.2,10.6c0.8,1.4,3.2,2.7,5,2.7c29.9,0.1,59.8,0.1,89.6,0.1c2.9,0,5.8,0.3,8.6-0.1
			c2.4-0.3,4.9-0.8,5.8-3.8c1.1-3.5,2.6-6.9,4.1-10.8c2.5,5.1,4.6,9.5,6.9,14.2c-1.6,0.7-3.3,1.4-5,2.2c-2.6,1.1-5,2.3-5.1,5.8
			c-0.1,8.4-0.7,16.7-0.6,25.1c0.1,14.5,0.4,29,0.7,43.5c0.1,2.7,0.4,5.5,1.1,8.1c0.3,1.3,1.5,2.8,2.7,3.4c2.3,1.1,4.9,1.7,7.4,2.4
			c11.2,3.1,22.6,1.8,33.9,1.9c6.8,0.1,12.9-1.9,19.1-3.8c3.2-1,4.3-3.2,4.4-6.2c0.3-18.5,0.7-37,0.8-55.5c0-6.4-0.5-12.9-0.9-19.3
			c-0.2-3.6-2.3-5.3-5.7-5.8c-1.2-0.2-2.3-0.7-3.4-1.1c0.8-0.8,1.2-0.9,1.7-0.8c8.6,1.3,14.1-1.6,15.8-10.7c0.5-2.9,5.5-4.8,8.7-3.9
			c-3,8.5-2.1,16.6,3.9,23.4c4.1,4.6,9.2,8.3,13.8,12.5c4.4,4,12.4,5.2,18,1.6c3.9-2.5,7.7-5.2,11.5-7.9c2.9-2.1,5.9-1.7,8.8-0.6
			c3.1,1.3,4.4,4.4,3.7,7.4c-1.2,6-3,12-4.6,17.9c-0.8,3.1-1.8,6.2-2.4,9.3c-0.4,2.1,0.2,4.6,2.7,4.6c2,0,5.1-0.7,5.9-2.1
			c2.2-3.6,4-7.7,5-11.8c1.7-7,2.7-14.2,3.8-20.1c0.8,5.4,2.2,12.2,2.6,19.1c0.8,11.3,1,22.7,1.5,34c0.5,12.4,0.9,24.9,1.5,37.3
			c0.1,2.6,0.7,5.2,1.5,7.7c1.2,3.9,3.5,5,8.8,4.8c3.6-0.1,5.4-1.9,6-5.3c1.1-6.8,2.4-13.5,3.4-20.3c0.5-2.9,0.4-6,0.8-8.9
			c0.9-8.2,1.9-16.3,2.7-24.5c0.8-8.3,1.5-16.6,2.3-24.9c1.2-13.1,2.5-26.1,3.4-39.2c0.5-7.2,0.6-14.5,0.8-21.7
			c0.1-6.8,0.2-13.6,0-20.4c-0.4-12.9-0.8-25.8-1.5-38.7c-0.4-7-1.2-14-2-21c-0.6-5.4-1.7-10.8-2.3-16.3c-0.9-9.5-1.5-19-2.3-28.6
			c-1.3-14.8-2.7-29.7-4.3-44.5c-0.3-3.3-1.3-6.5-2.4-9.7c-1.1-3.4-4.3-2.4-6.8-2.5c-2.2-0.1-3.6,1.1-3.9,3.4
			c-0.5,3.3-1.2,6.6-1.6,9.9c-1.4,12.4-3.2,24.8-4,37.3c-0.8,11.5-0.6,23-0.9,34.5c-0.1,4.8-0.2,9.6-0.8,14.3
			c-0.7,6.1-1.9,12.2-2.9,18.3c0.4-11.1-3.2-21.3-7-31.4c-1.1-2.9-3.4-4.5-6.4-4.1c-3.2,0.4-3.6,3.2-3.8,5.7c-0.1,1.8-0.4,4,0.5,5.3
			c4,6.1,5.3,12.9,6.4,19.9c0.6,3.8-0.9,7.8-3.7,9.4c-3.6,2.1-6.3,1.5-10.1-1.6c-3.3-2.6-6.8-5.3-10.6-7c-5.4-2.4-10.8-2.4-16.4,0.9
			c-6.4,3.8-11.1,9.1-15.6,14.6c-5.1,6.2-7.5,13.3-5.1,21.3c0.3,1,0.6,1.9,0.9,2.9c-6.3-1.2-8.7-6-10.1-11.1c-1-3.6-3-4.5-6.2-4.4
			c-2.7,0.1-5.5,0-8.2,0c-0.2-0.3-0.3-0.7-0.5-1c7.7-1.3,7.5-6.8,7.5-12.4c0-27.2,0-54.5,0-81.7c0-16-0.1-31.9,0.1-47.9
			c0-3.2-0.6-5.4-4.1-6.6c-3-1-5.8-2.7-8.6-4.3c-0.8-0.5-1.7-1.7-1.8-2.6c-0.3-2.8-1.8-4.2-4.4-4.3c-5.1-0.2-10.3-0.3-15.4-0.2
			c-4.2,0-8.4,0-12.5,0.5c-1.3,0.2-3.4,2-3.5,3.2c-0.1,2.8-1.7,3.8-3.7,4.6c-2.1,0.8-4.2,1.6-6.4,2.4c-4.8,1.7-5.3,2.3-5.3,7.5
			c0,43.3,0.1,86.6-0.1,130c0,5.4,0.7,9.8,6.6,11.5c0.7,0.2,1.3,0.9,1.9,1.3c-3.3,4.2-0.4,11.4-7.6,13.6c-0.7-2.1-1.3-4.2-2.1-6.2
			c-2.5-6.8-2.4-7.1-8.8-6.5c-1.5,0.1-3.1,0-4.6,0c-30.7,0-61.4-0.1-92.1,0c-1.8,0-4.3,1.4-5.2,2.9c-1.7,2.9-2.5,6.3-3.7,9.5
			c-6.4-1.5-7.6-3.5-8.3-13.7c1.6-0.7,3.2-1.6,4.9-2.2c3.9-1.4,4.1-2.6,3.7-6.7c-0.7-6.8-1.7-13.8-0.6-20.3c1-6.2-0.4-12-0.5-18
			c-0.1-3.1-1-6.1-1.1-9.2c-0.2-4.2-0.2-8.4,0-12.6c0.1-3,0.4-6,1.1-8.8c1.9-7.3,0.6-9.3-5.4-11.1c-3.2-1-6.7-3-8.7-5.6
			c-1.9-2.4-3.6-3.7-6.4-3.7c-9-0.1-18-0.2-27,0.1c-1.9,0.1-4.9,1.2-5.4,2.6c-1.7,4.9-6.3,5.4-9.9,6.6c-6.2,2.1-8,3.8-5.9,10.3
			c2.7,8.6,1.8,17.3,1.3,25.9c-0.4,7.2-1.5,14.4-1.8,21.7c-0.2,5.1,0.4,10.3,0.6,15.4c0.2,4.5,0.4,9,0.6,13.9
			c-1.4,0-3.3-0.4-4.9,0.1c-1.6,0.5-3.6,1.8-4,3.2c-2,6.5-5.9,10.5-12.4,12.6c-2,0.6-3.5,2.9-5.2,4.3c-1,0.8-2,1.8-3.2,2
			c-6.7,1.2-12.8-1.1-19.5-4.5c1.1-1.9,2.6-3.8,3.2-5.9c2-7.4,4.4-14.9,5.1-22.5c0.6-7-0.7-14.3-1.1-21.4c-0.1-1-0.1-1.9,0-2.9
			c0.2-7.4,0.9-14.8,0.5-22.2c-0.3-4.9-0.6-10.7-7.8-11.4c13.7-13.1,8.4-29.2,0-37.8c4.7-7.5,5.8-16.1,6.8-24.7
			c0.9-7,0.5-14.1,0.5-21.2c-0.1-5.7,0.1-11,3.4-16.2c1.3-2,0.9-5.9,0-8.5c-1.1-2.9-4.5-2.5-7.3-2.3c-2.3,0.2-4.5,0.4-6.8,0.5
			c-7.9,0.3-15.8,0.6-23.7,0.9c-5.7,0.2-7.6,3-6.1,8.5c0.7,2.7,1.3,5.6,1.4,8.4c0.4,13.1,0.3,26.1,0.8,39.2c0.2,3.9,1,8.2,2.9,11.5
			c2.1,3.6,3,6.4-0.4,8.9c-2.9,2.1-3.4,5-4,8c-0.4,2-0.3,4.1-0.9,6c-1.4,4.5-0.2,8.2,2.8,11.6c2.1,2.5,4.2,5,5.7,6.9
			c-2.5,2.8-5.1,4.8-6.5,7.5c-1.1,2.1-0.9,4.9-1,7.4c-0.4,8.5,1,17,0.2,25.6c-0.9,10.3-0.2,20.8,2.6,30.9c1.2,4.5,2.7,8.9,4,13.3
			c0.3-0.1,0.6-0.2,1-0.3c-0.6,1-1.1,2-2.1,3.5c-2.8-2.8-6.2-5-7.6-8.1c-2-4.4-4.4-7.9-9.2-8.1c-9-0.4-18-0.6-27-0.5
			c-4.6,0.1-9.2,0.9-13.8,1.4c-1.4,0.1-2.8,0.3-4.2,0.1c-2.8-0.3-5.6-1-8.4-1c-15.6-0.1-31.2,0-46.8-0.1c-2.5,0-5-0.5-7.4-1
			c-3.7-0.9-6.8-0.4-9.4,2.6c-3.7,4.1-7.5,8.1-11.3,12c-0.8,0.8-2,1.3-3.1,1.5c-1.8,0.3-3.7,0.2-5.7,0.3c0.2-1.2,0.3-2.3,0.5-3.6
			c2.2-0.3,4.3-0.6,6.4-1c5.3-1,9.9-7.5,9.1-12.5c-0.4-3-0.5-6-0.4-9c0.3-5.6,1-11.2,1.2-16.7c0.2-10,0.1-19.9,0-29.9
			c0-2.4-0.4-5.1-1.4-7.3c-2.4-5-5.4-9.8-8-14.7c-0.7-1.4-1.2-3.1-1.2-4.7c-0.1-11.5,0-23-0.1-34.6c0-1.5,0-3.2-0.6-4.6
			c-2.2-5.3-4.6-10.5-7.2-16.3c1.7-0.3,3.3-0.7,4.8-0.7c10-0.1,19.9,0,29.9-0.1c3.1-0.1,6.5-0.2,9.1-1.5c2.6-1.4,5.6-4,6.3-6.6
			c2.5-9.3-3.6-16.5-13.4-16.6c-11.2-0.1-22.3,0-33.5-0.1c-3,0-6.2,0.6-8.5-2.3c-0.5-0.6-1.7-1-2.6-1c-6.2,0.2-12.5-1.1-18.5,2.3
			c-5.6,3.1-6.9,4.5-6.3,10.9c0.3,3.3,0.7,6.7,0.6,10c-0.1,3.3,0.9,5.5,4.9,6.3c-1.3,2-2,3.8-3.3,5c-5.8,5.6-5.7,13-5.5,20
			c0.2,11.1,1.2,22.1,1.8,33.2c0,0.7-0.2,1.9-0.8,2.2c-4.8,2.7-6,8.1-9,12.1c-1.1,1.5-1.7,3.7-1.7,5.6c0,7.5,0.4,15.1,0.7,22.6
			c0.3,10.3,0.6,20.6,0.7,30.9c0.1,5.7-0.3,11.5,3.8,16.5c-1,0.2-1.5,0.3-2,0.3c-13.2,0-26.4-0.3-39.6,0c-7.1,0.2-12-3.8-17.4-7.2
			c-2-1.3-4.6-1.8-6.9-2.2c-2-0.3-4,0.4-6,0.4c-18,0.4-35.9,0.7-53.9,1c-4.9,0.1-9.4,3.4-10.6,8c-0.8,3.2-1.5,6.5-2.4,10.5
			c-1.2-1.4-1.9-2.5-2.9-3.2c-1.2-1-2.7-2.2-4.1-2.3c-4.6-0.5-9.3-0.7-14-0.9c-4.7-0.2-8.7,1.2-11.7,5c-1.5,1.9-3.1,1.9-5.2,0.4
			c-2.4-1.7-5.2-3.4-8-3.8c-6.1-0.9-12.4-1.3-18.6-1.5c-9.1-0.2-18.1,0-27.2-0.1c-1.6,0-3.1-1.3-4.8-1.5c-2.5-0.4-5.2-1-7.5-0.3
			c-1.1,0.3-1.8,3.2-2.2,5.1c-0.4,2,0.3,4.2-0.3,6.1c-1.6,5.9-1.5,11.7,0,17.7c0.5,2.1-0.4,4.4-0.4,6.7c0,2.2-0.3,5.8,0.9,6.4
			c1.9,1,4.9,0.4,7.4,0.2c1-0.1,1.9-1,2.9-1.1c6.3-0.3,12.7-0.5,19-0.5c6.7-0.1,13.4,0.1,20.1-0.1c6.8-0.2,13.2-1.8,19-5.4
			c0.9-0.5,2.9-0.6,3.6,0c5.9,5.7,13.3,5.8,20.8,5.8c5.1,0,9.8-0.2,12.4-5.6C132,254.6,132.5,254.5,133,254.3z"/>
		<path d="M133,254.3c-0.5,0.2-1,0.3-1.1,0.6c-2.5,5.4-7.3,5.6-12.4,5.6c-7.5,0-14.9,0-20.8-5.8c-0.6-0.6-2.7-0.6-3.6,0
			c-5.9,3.6-12.3,5.2-19,5.4c-6.7,0.2-13.4,0-20.1,0.1c-6.3,0.1-12.7,0.3-19,0.5c-1,0-1.9,1-2.9,1.1c-2.5,0.2-5.4,0.8-7.4-0.2
			c-1.1-0.6-0.8-4.1-0.9-6.4c0-2.2,0.9-4.6,0.4-6.7c-1.5-5.9-1.6-11.7,0-17.7c0.5-1.9-0.1-4.1,0.3-6.1c0.4-1.8,1-4.7,2.2-5.1
			c2.3-0.7,5-0.1,7.5,0.3c1.6,0.2,3.2,1.5,4.8,1.5c9.1,0.2,18.1-0.1,27.2,0.1c6.2,0.2,12.4,0.6,18.6,1.5c2.8,0.4,5.6,2.1,8,3.8
			c2.1,1.5,3.7,1.5,5.2-0.4c3-3.8,7-5.2,11.7-5c4.7,0.2,9.3,0.4,14,0.9c1.4,0.2,2.8,1.4,4.1,2.3c1,0.7,1.7,1.8,2.9,3.2
			c0.9-4,1.6-7.3,2.4-10.5c1.2-4.6,5.7-7.9,10.6-8c18-0.3,35.9-0.7,53.9-1c2,0,4.1-0.7,6-0.4c2.4,0.3,4.9,0.9,6.9,2.2
			c5.4,3.4,10.3,7.4,17.4,7.2c13.2-0.3,26.4,0,39.6,0c0.5,0,0.9-0.1,2-0.3c-4.1-5-3.7-10.8-3.8-16.5c-0.1-10.3-0.4-20.6-0.7-30.9
			c-0.2-7.5-0.6-15.1-0.7-22.6c0-1.9,0.6-4.1,1.7-5.6c3-4,4.2-9.4,9-12.1c0.5-0.3,0.8-1.5,0.8-2.2c-0.6-11.1-1.6-22.1-1.8-33.2
			c-0.1-7.1-0.2-14.4,5.5-20c1.3-1.3,2.1-3.1,3.3-5c-4-0.7-5-2.9-4.9-6.3c0.1-3.3-0.3-6.7-0.6-10c-0.6-6.4,0.7-7.8,6.3-10.9
			c6-3.4,12.3-2.1,18.5-2.3c0.9,0,2.1,0.4,2.6,1c2.3,2.9,5.5,2.3,8.5,2.3c11.2,0,22.3,0,33.5,0.1c9.8,0.1,15.9,7.3,13.4,16.6
			c-0.7,2.6-3.7,5.3-6.3,6.6c-2.6,1.4-6,1.5-9.1,1.5c-10,0.2-19.9,0.1-29.9,0.1c-1.6,0-3.2,0.4-4.8,0.7c2.6,5.8,5,11,7.2,16.3
			c0.6,1.4,0.6,3,0.6,4.6c0,11.5,0,23,0.1,34.6c0,1.6,0.5,3.3,1.2,4.7c2.6,4.9,5.6,9.7,8,14.7c1,2.2,1.4,4.8,1.4,7.3
			c0.2,10,0.2,19.9,0,29.9c-0.1,5.6-0.9,11.2-1.2,16.7c-0.1,3,0,6.1,0.4,9c0.8,5-3.8,11.5-9.1,12.5c-2.1,0.4-4.2,0.7-6.4,1
			c-0.2,1.3-0.4,2.4-0.5,3.6c2-0.1,3.9,0,5.7-0.3c1.1-0.2,2.3-0.7,3.1-1.5c3.9-3.9,7.7-7.9,11.3-12c2.7-3,5.7-3.5,9.4-2.6
			c2.4,0.6,4.9,1,7.4,1c15.6,0.1,31.2,0,46.8,0.1c2.8,0,5.6,0.8,8.4,1c1.4,0.1,2.8,0,4.2-0.1c4.6-0.5,9.2-1.3,13.8-1.4
			c9-0.1,18,0,27,0.5c4.8,0.2,7.2,3.7,9.2,8.1c1.4,3.1,4.8,5.3,7.6,8.1c0.9-1.6,1.5-2.6,2.1-3.5c-0.3,0.1-0.6,0.2-1,0.3
			c-1.3-4.4-2.8-8.8-4-13.3c-2.8-10.1-3.5-20.6-2.6-30.9c0.8-8.6-0.6-17.1-0.2-25.6c0.1-2.5-0.1-5.3,1-7.4c1.4-2.7,4-4.7,6.5-7.5
			c-1.5-1.9-3.6-4.5-5.7-6.9c-3-3.4-4.2-7.1-2.8-11.6c0.6-1.9,0.5-4,0.9-6c0.6-3,1.1-5.9,4-8c3.4-2.5,2.6-5.2,0.4-8.9
			c-1.9-3.3-2.8-7.6-2.9-11.5c-0.5-13-0.5-26.1-0.8-39.2c-0.1-2.8-0.7-5.7-1.4-8.4c-1.5-5.4,0.5-8.2,6.1-8.5
			c7.9-0.3,15.8-0.6,23.7-0.9c2.3-0.1,4.5-0.3,6.8-0.5c2.8-0.2,6.2-0.6,7.3,2.3c1,2.5,1.4,6.5,0,8.5c-3.3,5.1-3.5,10.5-3.4,16.2
			c0.1,7.1,0.4,14.2-0.5,21.2c-1.1,8.5-2.2,17.2-6.8,24.7c8.4,8.6,13.7,24.6,0,37.8c7.3,0.7,7.6,6.5,7.8,11.4
			c0.4,7.4-0.3,14.8-0.5,22.2c0,1,0,1.9,0,2.9c0.4,7.1,1.8,14.4,1.1,21.4c-0.7,7.6-3.1,15-5.1,22.5c-0.6,2.1-2.1,4-3.2,5.9
			c6.7,3.4,12.8,5.7,19.5,4.5c1.1-0.2,2.2-1.2,3.2-2c1.8-1.4,3.2-3.7,5.2-4.3c6.5-2.1,10.4-6.1,12.4-12.6c0.4-1.4,2.5-2.6,4-3.2
			c1.6-0.5,3.5-0.1,4.9-0.1c-0.2-5-0.4-9.4-0.6-13.9c-0.2-5.1-0.8-10.3-0.6-15.4c0.3-7.2,1.4-14.5,1.8-21.7
			c0.5-8.7,1.4-17.3-1.3-25.9c-2.1-6.5-0.3-8.2,5.9-10.3c3.6-1.2,8.2-1.7,9.9-6.6c0.5-1.4,3.5-2.5,5.4-2.6c9-0.3,18-0.1,27-0.1
			c2.8,0,4.5,1.3,6.4,3.7c2,2.6,5.4,4.6,8.7,5.6c6,1.8,7.3,3.8,5.4,11.1c-0.8,2.9-1,5.9-1.1,8.8c-0.2,4.2-0.2,8.4,0,12.6
			c0.2,3.1,1.1,6.1,1.1,9.2c0.2,6,1.6,11.8,0.5,18c-1.1,6.6,0,13.6,0.6,20.3c0.4,4.1,0.2,5.3-3.7,6.7c-1.7,0.6-3.3,1.4-4.9,2.2
			c0.7,10.2,1.9,12.2,8.3,13.7c1.2-3.2,2-6.6,3.7-9.5c0.9-1.5,3.4-2.9,5.2-2.9c30.7-0.1,61.4,0,92.1,0c1.5,0,3.1,0.2,4.6,0
			c6.5-0.6,6.3-0.3,8.8,6.5c0.7,2,1.3,4,2.1,6.2c7.1-2.2,4.3-9.4,7.6-13.6c-0.6-0.4-1.2-1.1-1.9-1.3c-6-1.7-6.6-6-6.6-11.5
			c0.1-43.3,0.1-86.6,0.1-130c0-5.2,0.5-5.8,5.3-7.5c2.1-0.8,4.3-1.5,6.4-2.4c2.1-0.8,3.6-1.8,3.7-4.6c0-1.2,2.1-3,3.5-3.2
			c4.1-0.5,8.4-0.5,12.5-0.5c5.1,0,10.3,0.1,15.4,0.2c2.6,0.1,4.1,1.5,4.4,4.3c0.1,0.9,0.9,2.1,1.8,2.6c2.8,1.6,5.6,3.3,8.6,4.3
			c3.5,1.2,4.1,3.3,4.1,6.6c-0.1,16,0,31.9-0.1,47.9c0,27.2-0.1,54.5,0,81.7c0,5.6,0.1,11.1-7.5,12.4c0.2,0.3,0.3,0.7,0.5,1
			c2.7,0,5.5,0.1,8.2,0c3.2-0.1,5.2,0.7,6.2,4.4c1.4,5.1,3.7,9.8,10.1,11.1c-0.3-1-0.7-1.9-0.9-2.9c-2.4-8.1,0.1-15.1,5.1-21.3
			c4.5-5.6,9.2-10.9,15.6-14.6c5.5-3.3,11-3.4,16.4-0.9c3.8,1.7,7.3,4.4,10.6,7c3.9,3,6.5,3.6,10.1,1.6c2.7-1.6,4.3-5.7,3.7-9.4
			c-1.1-7-2.3-13.8-6.4-19.9c-0.9-1.3-0.6-3.5-0.5-5.3c0.1-2.6,0.6-5.3,3.8-5.7c3.1-0.4,5.3,1.2,6.4,4.1c3.8,10.1,7.4,20.2,7,31.4
			c1-6.1,2.2-12.2,2.9-18.3c0.6-4.7,0.6-9.5,0.8-14.3c0.3-11.5,0.1-23,0.9-34.5c0.9-12.5,2.6-24.9,4-37.3c0.4-3.3,1.1-6.6,1.6-9.9
			c0.4-2.3,1.7-3.4,3.9-3.4c2.5,0.1,5.7-1,6.8,2.5c1,3.1,2,6.4,2.4,9.7c1.6,14.8,3,29.7,4.3,44.5c0.9,9.5,1.4,19.1,2.3,28.6
			c0.5,5.5,1.6,10.8,2.3,16.3c0.8,7,1.6,14,2,21c0.7,12.9,1.1,25.8,1.5,38.7c0.2,6.8,0.1,13.6,0,20.4c-0.1,7.2-0.2,14.5-0.8,21.7
			c-1,13.1-2.3,26.1-3.4,39.2c-0.7,8.3-1.4,16.6-2.3,24.9c-0.8,8.2-1.8,16.3-2.7,24.5c-0.3,3-0.3,6-0.8,8.9
			c-1,6.8-2.3,13.5-3.4,20.3c-0.6,3.5-2.4,5.3-6,5.3c-5.3,0.1-7.6-0.9-8.8-4.8c-0.8-2.5-1.3-5.1-1.5-7.7c-0.6-12.4-1-24.9-1.5-37.3
			c-0.4-11.3-0.7-22.7-1.5-34c-0.5-6.9-1.9-13.6-2.6-19.1c-1.1,5.9-2.1,13.1-3.8,20.1c-1,4.1-2.8,8.2-5,11.8
			c-0.9,1.4-3.9,2.2-5.9,2.1c-2.5,0-3.1-2.5-2.7-4.6c0.6-3.1,1.6-6.2,2.4-9.3c1.6-6,3.4-11.9,4.6-17.9c0.6-3.1-0.6-6.2-3.7-7.4
			c-2.8-1.2-5.9-1.5-8.8,0.6c-3.8,2.7-7.6,5.4-11.5,7.9c-5.6,3.6-13.6,2.4-18-1.6c-4.6-4.1-9.7-7.9-13.8-12.5
			c-6-6.8-6.9-14.9-3.9-23.4c-3.2-0.9-8.2,1-8.7,3.9c-1.7,9.1-7.2,12-15.8,10.7c-0.5-0.1-1,0-1.7,0.8c1.1,0.4,2.2,0.9,3.4,1.1
			c3.4,0.5,5.5,2.2,5.7,5.8c0.3,6.4,0.9,12.9,0.9,19.3c-0.1,18.5-0.5,37-0.8,55.5c0,3-1.1,5.2-4.4,6.2c-6.3,1.9-12.4,3.9-19.1,3.8
			c-11.4-0.1-22.7,1.2-33.9-1.9c-2.5-0.7-5.1-1.3-7.4-2.4c-1.2-0.6-2.4-2.1-2.7-3.4c-0.7-2.6-1-5.4-1.1-8.1
			c-0.3-14.5-0.7-29-0.7-43.5c0-8.4,0.5-16.7,0.6-25.1c0.1-3.5,2.5-4.6,5.1-5.8c1.7-0.8,3.4-1.5,5-2.2c-2.3-4.7-4.5-9.2-6.9-14.2
			c-1.5,3.9-3,7.3-4.1,10.8c-0.9,3.1-3.4,3.6-5.8,3.8c-2.8,0.3-5.7,0.1-8.6,0.1c-29.9,0-59.8,0.1-89.6-0.1c-1.7,0-4.2-1.3-5-2.7
			c-1.8-3.3-2.8-7-4.2-10.6c-4.7-0.2-5.7,0.9-6.6,5.7c-0.5,2.8-2.2,5.4-3.3,7.9c5.3,4.2,12.3,3,18.8,4c2.4,0.4,3.8,1.6,3.8,4
			c0.1,6.7,0.2,13.4,0.1,20.2c0,2.7-1.6,4.1-4.3,4.3c-1.7,0.1-3.4-0.1-5,0.1c-4,0.5-7.9,1.2-11.9,1.8c-3.1,0.5-6.1,1-9.5,1.6
			c0,1.4,0,2.7,0,3.9c0,9.3,0,18.7,0,28c0,5.1-2.7,8.1-7.8,8.2c-5.9,0.2-11.8,0.1-17.6,0c-4.4-0.1-8.6-4.9-8.7-9.8
			c-0.1-6.2,0.1-12.3,0-18.5c-0.1-3.3-0.4-6.7-0.8-9.9c-0.1-0.8-1.1-2-1.9-2.1c-4.2-0.9-8.4-1.5-12.6-2.1c-1.4-0.2-2.9,0.1-4.3,0.1
			c-5.4-0.3-7.8-2.8-7.7-8.1c0-5.4,0.2-10.8,0.2-16.2c-0.1-3.5,1.7-5.3,5-5.9c2.3-0.5,4.5-0.9,7.2-1.4c-0.6-0.4-0.8-0.6-0.9-0.6
			c-5.7,0.6-10-0.1-12.3-6.9c-1.7-4.9-6.5-8.1-11.1-11.2c-8.6-5.8-16.5-3.4-24.5,0.5c-8.2,4-16.6,4-25.1,2.1
			c-1.9-0.4-4.6-2.8-5.3-2.2c-2.6,2-5.6,4.6-6.4,7.5c-1.9,6.8-7.3,7.5-12.3,7.8c-10.4,0.6-20.9,0.2-31.3,0.2c-0.5,0-1.1,0.1-1.4-0.1
			c-4.3-2.6-9-1.2-13.6-1.2c-15.5,0-31,0-46.4,0.1c-3.8,0-7.6-0.5-11.4,1.7c-2.9,1.7-6.7,1.1-9.4-2.1c-2.6-3.1-5.8-5.7-8.2-9
			c-3-4-6.4-5.9-11.2-5c3,11.6,5.6,23.3,5,35.5c-0.2,3.3,0.9,6.7,0.4,9.9c-0.9,5.5-3.1,10.5-9.9,11.5c1.6,2.2,3.6,3.8,4.1,5.9
			c1,3.7,1.7,7.7,1.6,11.5c0,4.6-1.2,9.1-1.3,13.7c-0.1,3.7,0.6,7.5,0.8,11.2c0.2,4.9,0.5,9.8,0.3,14.6c0,0.9-2.4,2.4-3.7,2.4
			c-9.4,0.2-18.7,0.1-28.1,0.1c-2.6,0-3.9-1.3-4-4c-0.3-6.1,0.3-12.1,2.6-17.8c0.5-1.2,0.2-2.8,0-4.2c-0.8-5.4-2-10.7-2.5-16.1
			c-0.4-5-0.1-10,4-13.8c0.4-0.4,0.1-2.6-0.5-3c-5.1-3.4-5.4-8.9-5.7-14c-0.6-9.7-1.1-19.4-0.6-29c0.3-4.6,3.1-9.1,4.8-13.7
			c-2.9-0.7-5.3-0.4-6.7,3.4c-0.5,1.3-3.2,2.6-4.9,2.6c-9.5,0.2-19,0-28.4,0c-6,0-12-0.4-17.9,0.4c-3.3,0.4-6.6,2.6-9.3,4.8
			c-5.5,4.5-11.8,4.7-18.3,4.4c-6.3-0.3-12.7-0.5-19-0.8c-11.3-0.5-22.6-0.9-33.9-1.4c-2.9-0.1-7.6-4.1-8.3-7.1
			c-0.4-1.7-0.5-3.6-0.9-5.3C134,257.5,133.5,256,133,254.3z M139.5,233.3c-0.4,4.7-0.9,8.8-1.1,13c0,0.6,1.5,1.7,2.4,1.8
			c2.4,0.3,4.8,0.2,7.2,0.1c2.9-0.1,4.2,1.3,4.1,4.1c0,2.4-0.3,4.8,0,7.2c0.1,1,1.5,2.4,2.4,2.6c2.8,0.5,5.7,0.6,8.5,0.6
			c11.5,0,23,0,34.6,0c1.9,0,3.1-0.3,2.8-2.5c-0.4-2.7,1.1-3.2,3.4-3.3c8-0.1,16.1-0.4,24.1-0.4c10.1,0,20.1,0.3,30.2,0.4
			c4.5,0,5.4-0.6,5.7-5.1c0.2-2.8,1.4-3.7,4.1-3.6c6.5,0.1,13,0.3,19.4-0.1c2.7-0.2,3.5,0.8,3.5,3.1c-0.1,2.8-0.5,5.5-0.5,8.2
			c-0.1,13.8,0,27.6-0.1,41.4c0,3,0,6.1,0,9.4c4.1,0,7.6-0.1,11,0c3.2,0.2,4.3-1.4,4.1-4.3c-0.3-3.5-0.8-7-0.8-10.5
			c0.1-7.5,0.7-15,0.8-22.6c0.1-6.9,0.3-14-0.6-20.8c-0.5-3.3,0.5-3.9,2.9-4c3-0.1,6.1,0.2,9.1,0.2c7.4,0,14.9,0.1,22.3,0
			c2.7,0,3.8,0.9,3.6,3.5c-0.1,0.7,0.1,1.4,0.3,2.2c1.4,0.1,2.5,0.3,3.7,0.3c12.2,0.1,24.4,0.2,36.6,0.2c22.3,0,44.6-0.1,67,0
			c2.4,0,3.4-0.7,3.1-3c-0.3-2.7,1-3.3,3.4-3.2c5.3,0.1,10.6,0,15.8,0c6.2,0,5.5-0.4,5.6,5.6c0,0.9,0.2,1.8,0.2,2.8
			c3.8,0,7.3,0,10.9,0c0.1-0.7,0.2-1.1,0.2-1.6c0.1-8.4-0.2-6.7,7.4-6.8c2.3,0,5.6-0.7,6.6,0.4c2.2,2.8,4.7,1.9,7.1,1.9
			c7.4,0.1,14.9,0,22.3,0c6.7,0,6.7,0,7.2,6.7c0,0.2,0.2,0.4,0.5,0.8c7.9,0,15.9,0.2,23.9-0.1c2.7-0.1,3.6,0.5,3.6,3.2
			c-0.1,5.8,0,11.5,0.1,17.3c0,1.1-0.3,2.5,0.3,3.2c2.6,3.2,1.7,6.8,1.7,10.3c0.1,15.6,0.1,31.2,0,46.8c0,3.3,1.2,4.3,4.2,4
			c0.6-0.1,1.2,0,1.8,0c8.8-0.1,8.7-0.1,8.8-8.9c0.2-16.4,0.4-32.9,0.8-49.3c0.1-2.5,1.7-4.9,1.8-7.5c0.3-5.1,0.3-10.3,0.2-15.5
			c-0.1-2.5,0.9-3.4,3.3-3.4c2.5,0,5-0.3,7.4-0.5c0.2-2.6,0.3-4.6,0.4-7c6.5,0,12.7-0.1,19,0c2.7,0,3.7,1.4,2.9,4.2
			c-0.9,3.2,0.3,4.6,3.8,4.6c4.4,0,8.8-0.4,13.2-0.4c6.6,0.1,13.1,0.5,19.7,0.5c18.2,0,36.4-0.1,54.6-0.1c3.4,0,6.8,0,10.5,0
			c0-2.5,0.1-4.2,0-6c-0.1-1.9,0.7-3,2.7-3c4.1,0,8.2-0.1,12.2,0.2c0.9,0.1,2.3,1.3,2.5,2.2c1,5.4,0.9,5.4,6.5,5.3
			c1.2,0,2.4-0.3,3.6-0.1c0.8,0.2,1.8,1.1,1.9,1.8c0.3,4.8,0.4,9.6,0.5,14.3c0.1,3.4-0.1,6.7-5.1,6c-0.1,1.5-0.2,2.6-0.2,3.8
			c0,22.2,0,44.4-0.1,66.6c0,4.9,0.4,5.5,5.3,5.4c6.9-0.1,13.9-0.7,20.8-0.3c3.5,0.2,5.5,0.2,5.5-3.9c0-22.7,0.1-45.3,0.1-68
			c0-1.2-0.1-2.3-0.2-3.6c-0.9-0.1-1.5-0.3-2-0.2c-3.4,0.4-4.6-1.1-4.4-4.5c0.3-4.9,0.2-9.8,0.1-14.7c-0.1-2.8,1.7-3.2,3.7-3.1
			c5,0,10,0.3,15,0.4c5.6,0.1,5.6,0,5.5-5.7c-0.1-2.9,0.4-4.6,4.1-4.4c6.3,0.4,12.7,0.1,19.1,0.1c2.5,0,4.9,0,7.5,0
			c0-5.3,0-10.1,0-15.2c-10.3,0-20.3,0-30.9,0c0-3.4,0-6.4,0-9.8c-1.8,0-3.1,0-4.4,0c-5.4,0-10.8,0-16.2,0c-2,0-3.1-0.6-3.1-2.8
			c-0.1-6.1-0.4-12.1-0.4-18.2c0-0.8,1.2-1.8,2.1-2.2c0.9-0.4,2-0.3,3.4-0.5c0-1.7,0-3.3,0-4.8c0-37.9-0.1-75.7-0.1-113.6
			c0-5,0.1-10,0.1-15c0-2.8-0.8-4.4-4.2-4.1c-3.8,0.3-7.7,0-11.5-0.1c-4.4,0-8.8,0-13.5,0c0,46.1,0,91.7,0,137.4
			c3.5-0.3,4.1,1.9,4.1,4.3c0.1,3.3-0.1,6.6-0.2,9.9c-0.1,3.2-0.3,6.4-0.4,9.9c-4.1,0-7.9,0-11.9,0c-0.1,1-0.3,1.7-0.3,2.4
			c0.1,3.5-1.4,5.1-5,4.8c-2-0.2-4.1,0-6.1,0c-6.1-0.1-5.9,1.3-5.9-5.6c0-0.9-0.2-1.8-0.3-2.8c-33.9,0-67.6,0-101.3,0
			c-0.1,2.9-0.3,5.6-0.4,8.3c-7.7,0-14.6,0-21.7,0c-0.1-2.6-0.2-4.7-0.3-7.2c-2.8,0-5.5,0.2-8-0.1c-0.9-0.1-2.4-1.6-2.5-2.4
			c-0.3-6.7-0.4-13.4-0.4-20.1c0-0.7,1-1.9,1.8-2.1c1.2-0.3,2.5,0,3.8,0c3.5,0.1,5.4-1.8,4.7-4.5c-0.6-2.2-1.1-4.6-1-6.8
			c0.2-7.8,0.8-15.5,0.9-23.3c0.2-7.2,0-14.4,0-21.6c0-1.9,0-3.7,0-6c-11.9,0-23.4,0-34.9,0.1c-0.7,0-1.9,1.2-2,1.9
			c-0.5,2.9-0.8,5.9-0.8,8.8c-0.1,7.8,0,15.6,0,23.4c0,7.9,0,15.8,0,23.8c0,2.4-0.1,4.6,3.7,3.8c2.3-0.5,4.6,0.4,4.4,3.9
			c-0.3,5.7-0.4,11.5-0.2,17.3c0.1,3.1-0.8,4.2-4.1,4.1c-7.9-0.2-15.8-0.1-23.9-0.1c-0.1,2.6-0.2,4.8-0.3,7.5c-9.8,0-19.2,0-28.7,0
			c-2.7,0-5.8-1.5-7.5,2c-0.1,0.2-0.7,0.1-1,0.2c-4.5,0-9,0-13.2,0c-0.6-31.7-1.2-63.7-1.7-95.7c-3.6,0-7.3,0-11.2,0
			c0,1.2,0,1.9,0,2.6c0.3,13.6,0.7,27.3,0.9,40.9c0.3,16.6,0.4,33.3,0.4,49.9c0,0.8-1.5,2.2-2.3,2.2c-6.7,0.2-13.4,0.3-20.1,0.2
			c-0.7,0-2-1.3-1.9-1.8c0.6-4.4-2.1-4.4-5.3-4.4c-33.5,0.1-66.9,0-100.4,0c-5,0-5,0-5.2,4.9c0,0.2-0.2,0.4-0.4,0.7
			c-0.4,0.1-0.8,0.3-1.3,0.3c-11,0.3-22,0.6-33,0.9c-2.2,0.1-2.6-1.3-2.6-3c0.1-9.8,0-19.6,0.3-29.4c0-0.7,1.8-1.9,2.8-2
			c3.8-0.2,7.6-0.1,11.1-0.1c0-7-0.1-13.4,0-19.9c0.1-10.3,0.4-20.6,0.6-30.9c0.1-5.6,0-5.6-5.2-6.6c-0.2,0-0.4-0.3-1.2-0.8
			c0-18.6,0-37.6,0-56.9c-2.9,0-5.3,0-7.9,0c-0.2-2.2-0.5-4.1-0.5-6c0-10.5,0-21.1,0.3-31.6c0.1-2.9-0.9-4-3.6-3.9
			c-2.9,0.1-5.8,0.1-8.6,0c-2.3-0.1-3.1,0.7-3.1,3.1c0.2,8,0.1,16.1,0.1,24.1c0,4.7,0,9.5,0,14.4c-3.1,0-5.6,0-8.4,0
			c-0.1,1.5-0.2,2.8-0.2,4.1c0,16.9-0.1,33.8,0,50.8c0,2-0.3,3.4-2.6,3.2c-2.7-0.2-3.1,1.1-3.1,3.5c0,16.3-0.1,32.6-0.1,49
			c0,1.4,0.2,2.8,0.3,4.6c4.8,0,9.3,0,13.7,0c0.2,0.7,0.4,1,0.4,1.4c0.1,8.9,0.3,17.7,0.3,26.6c0,5.6-0.2,5.6-5.7,6
			c-0.2,0-0.5,0.1-0.7,0.1c-6.7,0-13.3,0-20.1,0c-0.1-2-0.5-3.4-0.2-4.6c1.1-4-1.4-4-4.2-4c-18.5,0.1-36.9,0.1-55.4,0.3
			c-2.8,0-4.3-0.7-4.3-3.9c0-0.9-1.4-2.6-2.3-2.6c-6.5-0.1-12.9,0.1-19.4,0.2c-7.1,0.1-14.2,0.5-21.2,0.4c-4.7-0.1-5.2,0-5.2,4.8
			c0,1.6,0.1,3.1,0.1,4.7c0,2.9-1.2,4.8-4.5,4.8C145,233.3,142.2,233.3,139.5,233.3z M877,284.4c6.3-0.7,8,0.1,8.6,4.8
			c1.4,10.4,2.9,20.8,3.6,31.3c0.8,11.5,0.6,23,0.9,34.5c0,1.2,0.3,2.4,0.4,3.5c0.5,4.7,1,9.3,1.4,14c0.4,5.1,0.5,10.2,1,15.3
			c0.2,2.5,1.5,4.3,4.4,4.4c2.9,0.1,3.6-1.9,3.9-4.2c1.9-13.7,3.8-27.4,5.6-41.1c0.7-5.7,1-11.4,1.7-17.1c1.1-9.8,2.4-19.6,3.3-29.4
			c0.7-8,1.1-15.9,1.5-23.9c0.7-12,1.7-23.9,1.9-35.9c0.2-9-0.7-18.1-1.1-27.2c-0.5-9.7-1-19.5-1.6-29.2c-0.3-4.1-0.7-8.3-1.2-12.4
			c-0.7-5.9-1.7-11.8-2.3-17.7c-0.9-9.1-1.4-18.3-2.3-27.4c-1.4-14.8-2.8-29.6-4.3-44.4c-0.3-2.9-1.2-5.8-2.2-8.5
			c-0.2-0.7-1.6-1.4-2.4-1.3c-0.7,0-1.8,1-2,1.8c-0.7,2.9-1.2,5.8-1.5,8.7c-1.5,12.4-3.3,24.8-4.1,37.2c-1,14.1-0.8,28.2-1.7,42.3
			c-0.6,9.1-1.9,18.2-3.3,27.2c-0.8,5.4-1.9,5.7-8,4.4c2.3-6.8,2.4-14,0.4-20.7c-1.9-6.4-2.1-13.8-7.8-19c-1.8,2.7-1.5,5-0.2,7.5
			c4.3,8.1,6.9,16.7,5.5,26c-1.1,6.9-10,10.6-15.9,6.8c-4.1-2.7-7.9-5.9-12.2-8.3c-4.4-2.4-8.9-2.4-13.6,0.3
			c-7.2,4.2-11.9,10.5-16.6,17.2c-7.7,11,0,24.2,11.2,24.1c3.5,0,4.1,1.5,3.7,4.9c-0.5,5-1.2,10-0.6,14.9c0.4,3.8-0.7,4.5-3.9,4.9
			c-2.7,0.3-5.8,0.8-7.7,2.3c-6.7,5.3-6.9,18.5-0.5,24.6c4.4,4.2,9,8.3,13.8,12.2c3.5,2.9,7.7,3.9,11.9,1.8c2.8-1.4,5.4-3.3,8.1-5
			c3.9-2.5,6.8-6.3,12.6-5.4c6.6,1,10.8,4,10.1,10.7c-0.7,6.4-2.7,12.7-4.2,19.1c-0.9,3.5-3.6,6.7-2.5,10.8
			C875.7,320.4,880.4,296.9,877,284.4z M474.7,31.3c0-0.1,0-0.1,0-0.2c-2.8,0-5.5-0.1-8.3,0c-1.7,0.1-2.6,0.7-2,3
			c1,3.6,1.5,7.4,1.7,11.1c0.6,13.9,0.9,27.7,1.5,41.6c0.1,1.9,0.8,4.1,2,5.6c3.5,4.7,4,8.9-0.1,12.8c-3.1,3-3.7,6.4-4.5,10.1
			c-1.1,4.8-1,9.3,2.7,13c1.4,1.5,2.7,3,4.3,4.3c0.8,0.7,2,1.3,3,1.2c4.4-0.1,8.9-1.1,13.2-0.6c2.5,0.3,4.1-0.1,5.6-1.7
			c4.7-4.7,6.7-14.8,4.1-21c-1.1-2.5-2-5.7-4-7.1c-3.4-2.5-3-5-1.7-8c1.8-4.1,4.1-8,3.7-12.7c0-0.3,0.2-0.7,0.3-1
			c0.8-5.5,1.9-11,2.4-16.5c1-10.5-2.7-21.6,3.7-31.5c0.3-0.4,0.1-1.2,0.1-1.8c0-2.3-1.1-3.1-3.5-2.9
			C490.9,29.9,482.8,30.6,474.7,31.3z M133.2,232.2c-2.4-1.9-4.3-3.4-6.2-4.9c-0.6-0.5-1.3-1.2-2-1.2c-5-0.5-10-1.2-15-1
			c-2.3,0.1-4.9,1.8-6.5,3.5c-3.5,3.7-7.3,4.4-11.2,1.2c-0.7-0.6-1.5-1-2.3-1.4c-6.6-3.1-13.8-2.8-20.8-3.1c-9.3-0.4-18.7,0-28-0.2
			c-2.6,0-5.3,0.7-7.4-2.2c-1.1-1.6-3.8-0.1-3.9,2c-0.3,3.4-0.7,6.9-0.8,10.3c-0.1,3.5,0.2,6.9,0.2,10.4c0,3.7-0.1,7.5-0.1,11.2
			c0,0.8-0.1,1.9,0.3,2.2c0.4,0.4,1.5,0.1,2.3,0c2.6-0.6,5.1-1.8,7.7-1.9c10.9-0.3,21.8-0.5,32.7-0.2c6.5,0.2,12.3-2.3,18.4-3.8
			c0.7-0.2,1.3-0.9,2-1.4c2.4-1.9,6.2-2.1,8.3-0.3c4.5,4,9.5,6.2,15.7,5.4c1.1-0.1,2.2-0.2,3.2,0c4.1,0.5,7.5-0.1,9.5-4.3
			c0.3-0.6,1-1.3,1.6-1.4c2.7-0.1,2.5-2.1,2.5-3.9C133.3,241.9,133.2,236.6,133.2,232.2z M313,370.4c-0.3-4.1-0.6-8-0.9-11.9
			c-0.3-5.1-1.3-10.2-0.7-15.2c1.2-9.4,3.7-18.8-4.5-26.4c-1.3-1.2-3.1-2.2-4.7-2.5c-4.9-0.8-9.6,0.1-13.2,2.1
			c-1.7,2.7-3.3,4.6-4.3,6.7c-3.3,7.2-0.6,14.4,0.4,21.6c0.5,3.4,0.3,6.9-0.1,10.4c-0.5,5-1.5,9.9-2.3,15.2
			C293.3,370.4,302.8,370.4,313,370.4z M309.2,64.5c9.4,0,18.4,0.1,27.4,0c5-0.1,10.1-0.4,15.1-0.9c3.6-0.3,6.2-2.3,6.8-5.9
			c0.7-3.7,0-7.4-3.9-9.2c-2.4-1.1-5.2-2-7.8-2.1c-11.6-0.2-23.3-0.1-34.9-0.1c-0.8,0-1.6,0.1-2.6,0.2
			C309.2,52.8,309.2,58.8,309.2,64.5z M285.6,65.5c0.4-0.2,0.8-0.5,1.3-0.7c0-6.2,0-12.3,0-18.6c-2.9,0.2-3.8,1.8-3.7,4.3
			c0.2,3.9,0.2,7.9,0.6,11.8C283.9,63.4,284.9,64.4,285.6,65.5z M275.1,219.8c1.7,2.5,2.7,4.9,5.9,4.6c0-1.8,0-3.1,0-4.6
			C279.2,219.8,277.7,219.8,275.1,219.8z"/>
		<path fill="#FFFFFF" d="M877,284.4c3.4,12.5-1.3,36-8.2,39.3c-1.1-4.2,1.6-7.3,2.5-10.8c1.5-6.3,3.5-12.6,4.2-19.1
			c0.7-6.6-3.5-9.7-10.1-10.7c-5.8-0.9-8.7,2.9-12.6,5.4c-2.7,1.7-5.3,3.6-8.1,5c-4.3,2.1-8.4,1.1-11.9-1.8
			c-4.7-3.9-9.3-7.9-13.8-12.2c-6.4-6.1-6.2-19.3,0.5-24.6c2-1.6,5.1-2,7.7-2.3c3.2-0.4,4.4-1.1,3.9-4.9c-0.6-4.9,0.1-10,0.6-14.9
			c0.3-3.4-0.3-4.9-3.7-4.9c-11.2,0.1-18.9-13.2-11.2-24.1c4.7-6.7,9.4-12.9,16.6-17.2c4.6-2.7,9.2-2.8,13.6-0.3
			c4.3,2.4,8.1,5.6,12.2,8.3c5.9,3.8,14.8,0.1,15.9-6.8c1.4-9.3-1.1-17.9-5.5-26c-1.3-2.5-1.6-4.8,0.2-7.5c5.8,5.2,5.9,12.6,7.8,19
			c2,6.7,2,13.8-0.4,20.7c6.2,1.3,7.2,1,8-4.4c1.4-9,2.8-18.1,3.3-27.2c0.9-14.1,0.7-28.2,1.7-42.3c0.9-12.4,2.7-24.8,4.1-37.2
			c0.3-2.9,0.8-5.9,1.5-8.7c0.2-0.7,1.3-1.7,2-1.8c0.8-0.1,2.2,0.7,2.4,1.3c0.9,2.8,1.9,5.6,2.2,8.5c1.5,14.8,3,29.6,4.3,44.4
			c0.8,9.1,1.4,18.3,2.3,27.4c0.6,5.9,1.6,11.8,2.3,17.7c0.5,4.1,0.9,8.3,1.2,12.4c0.6,9.7,1.1,19.5,1.6,29.2
			c0.5,9.1,1.3,18.1,1.1,27.2c-0.2,12-1.2,24-1.9,35.9c-0.5,8-0.8,16-1.5,23.9c-0.9,9.8-2.3,19.6-3.3,29.4
			c-0.6,5.7-0.9,11.4-1.7,17.1c-1.8,13.7-3.7,27.4-5.6,41.1c-0.3,2.3-1,4.2-3.9,4.2c-2.9-0.1-4.1-1.9-4.4-4.4
			c-0.5-5.1-0.6-10.2-1-15.3c-0.4-4.7-0.9-9.3-1.4-14c-0.1-1.2-0.4-2.4-0.4-3.5c-0.3-11.5-0.2-23-0.9-34.5
			c-0.7-10.5-2.2-20.9-3.6-31.3C885,284.5,883.3,283.7,877,284.4z"/>
		<path fill="#FFFFFF" d="M474.7,31.3c8.1-0.7,16.2-1.4,24.3-2.2c2.3-0.2,3.4,0.6,3.5,2.9c0,0.6,0.2,1.3-0.1,1.8
			c-6.5,9.9-2.7,21-3.7,31.5c-0.5,5.5-1.6,11-2.4,16.5c-0.1,0.4-0.3,0.7-0.3,1c0.4,4.7-2,8.6-3.7,12.7c-1.3,3.1-1.8,5.5,1.7,8
			c2,1.5,2.9,4.6,4,7.1c2.6,6.1,0.6,16.3-4.1,21c-1.5,1.5-3.1,2-5.6,1.7c-4.3-0.5-8.8,0.5-13.2,0.6c-1,0-2.2-0.5-3-1.2
			c-1.5-1.3-2.9-2.9-4.3-4.3c-3.7-3.8-3.7-8.2-2.7-13c0.8-3.7,1.4-7.2,4.5-10.1c4.1-3.9,3.6-8.1,0.1-12.8c-1.1-1.5-1.9-3.7-2-5.6
			c-0.6-13.9-0.9-27.7-1.5-41.6c-0.2-3.7-0.7-7.5-1.7-11.1c-0.7-2.4,0.2-2.9,2-3c2.7-0.2,5.5,0,8.3,0
			C474.7,31.1,474.7,31.2,474.7,31.3z"/>
		<path fill="#FFFFFF" d="M133.2,232.2c0,4.4,0,9.7,0,15.1c0,1.7,0.2,3.7-2.5,3.9c-0.6,0-1.3,0.8-1.6,1.4c-1.9,4.2-5.4,4.9-9.5,4.3
			c-1.1-0.1-2.2-0.1-3.2,0c-6.1,0.8-11.2-1.5-15.7-5.4c-2.1-1.9-5.9-1.6-8.3,0.3c-0.6,0.5-1.2,1.2-2,1.4c-6.1,1.6-11.8,4-18.4,3.8
			c-10.9-0.3-21.8-0.1-32.7,0.2c-2.6,0.1-5.2,1.3-7.7,1.9c-0.7,0.2-1.8,0.4-2.3,0c-0.4-0.4-0.3-1.4-0.3-2.2c0-3.7,0.1-7.5,0.1-11.2
			c0-3.5-0.3-6.9-0.2-10.4c0.1-3.4,0.5-6.9,0.8-10.3c0.2-2.1,2.8-3.6,3.9-2c2.1,2.9,4.8,2.2,7.4,2.2c9.3,0.1,18.7-0.2,28,0.2
			c7,0.3,14.2,0,20.8,3.1c0.8,0.4,1.6,0.9,2.3,1.4c3.9,3.2,7.8,2.5,11.2-1.2c1.6-1.7,4.3-3.4,6.5-3.5c5-0.2,10,0.5,15,1
			c0.7,0.1,1.4,0.7,2,1.2C128.9,228.8,130.9,230.4,133.2,232.2z"/>
		<path fill="#FFFFFF" d="M313,370.4c-10.1,0-19.7,0-30.2,0c0.8-5.3,1.8-10.2,2.3-15.2c0.4-3.4,0.6-7,0.1-10.4
			c-1-7.2-3.6-14.4-0.4-21.6c1-2.2,2.5-4,4.3-6.7c3.5-2,8.3-2.9,13.2-2.1c1.7,0.3,3.5,1.3,4.7,2.5c8.2,7.6,5.7,17,4.5,26.4
			c-0.6,5,0.3,10.1,0.7,15.2C312.3,362.4,312.7,366.3,313,370.4z"/>
		<path fill="#FFFFFF" d="M309.2,64.5c0-5.7,0-11.7,0-17.9c1-0.1,1.8-0.2,2.6-0.2c11.6,0,23.3-0.1,34.9,0.1c2.6,0.1,5.4,1,7.8,2.1
			c3.9,1.8,4.5,5.5,3.9,9.2c-0.6,3.6-3.2,5.6-6.8,5.9c-5,0.4-10,0.8-15.1,0.9C327.6,64.6,318.7,64.5,309.2,64.5z"/>
		<path fill="#FFFFFF" d="M285.6,65.5c-0.6-1.1-1.7-2.1-1.8-3.3c-0.4-3.9-0.4-7.8-0.6-11.8c-0.1-2.5,0.7-4.1,3.7-4.3
			c0,6.3,0,12.5,0,18.6C286.4,65,286,65.3,285.6,65.5z"/>
		<path fill="#FFFFFF" d="M275.1,219.8c2.6,0,4.1,0,5.9,0c0,1.4,0,2.8,0,4.6C277.8,224.7,276.8,222.3,275.1,219.8z"/>
	</g>
</g>
<g id="rooms">
	<path id="rooms_1_" fill="#FFFFFF" d="M140.1,233.3c2.7,0,5.4,0,8.1,0c3.2,0,4.4-1.8,4.5-4.8c0-1.6-0.1-3.1-0.1-4.7
		c-0.1-4.7,0.5-4.9,5.2-4.8c7.1,0.2,14.2-0.2,21.2-0.4c6.5-0.1,12.9-0.3,19.4-0.2c0.8,0,2.3,1.7,2.3,2.6c0,3.1,1.5,3.9,4.3,3.9
		c18.5-0.1,36.9-0.2,55.4-0.3c2.7,0,5.2,0,4.2,4c-0.3,1.2,0.1,2.6,0.2,4.6c6.8,0,13.5,0,20.1,0c0.2,0,0.5-0.1,0.7-0.1
		c5.5-0.3,5.7-0.4,5.7-6c0-8.9-0.2-17.7-0.3-26.6c0-0.3-0.2-0.7-0.4-1.4c-4.4,0-8.9,0-13.7,0c-0.1-1.8-0.3-3.2-0.3-4.6
		c0-16.3,0.2-32.6,0.1-49c0-2.4,0.4-3.7,3.1-3.5c2.3,0.2,2.6-1.1,2.6-3.2c-0.1-16.9,0-33.8,0-50.8c0-1.3,0.1-2.6,0.2-4.1
		c2.8,0,5.3,0,8.4,0c0-5,0-9.7,0-14.4c0-8,0-16.1-0.1-24.1c0-2.4,0.7-3.2,3.1-3.1c2.9,0.1,5.8,0,8.6,0c2.7-0.1,3.7,1.1,3.6,3.9
		c-0.3,10.5-0.2,21.1-0.3,31.6c0,1.9,0.3,3.8,0.5,6c2.6,0,4.9,0,7.9,0c0,19.3,0,38.3,0,56.9c0.8,0.6,0.9,0.8,1.2,0.8
		c5.2,1,5.3,1,5.2,6.6c-0.2,10.3-0.4,20.6-0.6,30.9c-0.1,6.4,0,12.9,0,19.9c-3.6,0-7.4-0.1-11.1,0.1c-1,0.1-2.8,1.3-2.8,2
		c-0.2,9.8-0.2,19.6-0.3,29.4c0,1.8,0.4,3.1,2.6,3c11-0.3,22-0.6,33-0.9c0.5,0,0.9-0.2,1.3-0.3c0.2-0.3,0.4-0.5,0.4-0.7
		c0.2-4.9,0.2-4.9,5.2-4.9c33.5,0,66.9,0,100.4,0c3.2,0,5.9,0,5.3,4.4c-0.1,0.5,1.2,1.8,1.9,1.8c6.7,0.1,13.4,0,20.1-0.2
		c0.8,0,2.3-1.4,2.3-2.2c0-16.6-0.1-33.3-0.4-49.9c-0.2-13.6-0.6-27.3-0.9-40.9c0-0.7,0-1.4,0-2.6c3.9,0,7.6,0,11.2,0
		c0.6,32,1.2,64,1.7,95.7c4.2,0,8.7,0,13.2,0c0.3,0,0.9,0,1-0.2c1.7-3.6,4.8-2,7.5-2c9.5,0,18.9,0,28.7,0c0.1-2.7,0.2-4.9,0.3-7.5
		c8.1,0,16-0.2,23.9,0.1c3.2,0.1,4.2-0.9,4.1-4.1c-0.2-5.8-0.1-11.5,0.2-17.3c0.2-3.5-2.1-4.4-4.4-3.9c-3.8,0.8-3.7-1.5-3.7-3.8
		c0-7.9,0-15.8,0-23.8c0-7.8-0.1-15.6,0-23.4c0-3,0.3-5.9,0.8-8.8c0.1-0.8,1.3-1.9,2-1.9c11.5-0.1,23-0.1,34.9-0.1c0,2.3,0,4.1,0,6
		c0,7.2,0.1,14.4,0,21.6c-0.2,7.8-0.8,15.5-0.9,23.3c-0.1,2.3,0.4,4.6,1,6.8c0.7,2.7-1.2,4.6-4.7,4.5c-1.3,0-2.6-0.4-3.8,0
		c-0.8,0.2-1.8,1.4-1.8,2.1c0,6.7,0.1,13.4,0.4,20.1c0,0.9,1.5,2.3,2.5,2.4c2.6,0.3,5.2,0.1,8,0.1c0.1,2.5,0.2,4.6,0.3,7.2
		c7.1,0,14,0,21.7,0c0.1-2.7,0.3-5.4,0.4-8.3c33.7,0,67.3,0,101.3,0c0.1,1,0.3,1.9,0.3,2.8c0,6.9-0.2,5.5,5.9,5.6c2,0,4.1-0.1,6.1,0
		c3.6,0.3,5.1-1.4,5-4.8c0-0.7,0.2-1.4,0.3-2.4c3.9,0,7.7,0,11.9,0c0.2-3.5,0.3-6.7,0.4-9.9c0.1-3.3,0.2-6.6,0.2-9.9
		c0-2.4-0.6-4.6-4.1-4.3c0-45.7,0-91.2,0-137.4c4.7,0,9.1,0,13.5,0c3.8,0,7.7,0.4,11.5,0.1c3.4-0.3,4.2,1.4,4.2,4.1
		c0,5-0.1,10-0.1,15c0,37.9,0.1,75.7,0.1,113.6c0,1.5,0,3.1,0,4.8c-1.4,0.2-2.6,0-3.4,0.5c-0.9,0.4-2.1,1.5-2.1,2.2
		c0,6.1,0.3,12.1,0.4,18.2c0,2.3,1.1,2.9,3.1,2.8c5.4-0.1,10.8,0,16.2,0c1.3,0,2.6,0,4.4,0c0,3.4,0,6.4,0,9.8c10.6,0,20.7,0,30.9,0
		c0,5.1,0,9.9,0,15.2c-2.6,0-5,0-7.5,0c-6.4,0-12.7,0.3-19.1-0.1c-3.7-0.2-4.2,1.5-4.1,4.4c0.2,5.7,0.1,5.7-5.5,5.7
		c-5-0.1-10-0.4-15-0.4c-2,0-3.8,0.4-3.7,3.1c0.1,4.9,0.2,9.8-0.1,14.7c-0.2,3.4,1.1,4.8,4.4,4.5c0.6-0.1,1.2,0.1,2,0.2
		c0.1,1.2,0.2,2.4,0.2,3.6c0,22.7-0.1,45.3-0.1,68c0,4.1-2,4.1-5.5,3.9c-6.9-0.4-13.9,0.2-20.8,0.3c-4.8,0.1-5.3-0.5-5.3-5.4
		c0-22.2,0-44.4,0.1-66.6c0-1.2,0.1-2.4,0.2-3.8c5,0.6,5.2-2.7,5.1-6c-0.1-4.8-0.2-9.6-0.5-14.3c0-0.7-1.1-1.6-1.9-1.8
		c-1.1-0.3-2.4,0-3.6,0.1c-5.6,0.1-5.5,0.1-6.5-5.3c-0.2-0.9-1.6-2.2-2.5-2.2c-4.1-0.3-8.2-0.2-12.2-0.2c-2,0-2.8,1.1-2.7,3
		c0.1,1.8,0,3.6,0,6c-3.6,0-7.1,0-10.5,0c-18.2,0-36.4,0.1-54.6,0.1c-6.6,0-13.1-0.5-19.7-0.5c-4.4,0-8.8,0.4-13.2,0.4
		c-3.5,0-4.7-1.4-3.8-4.6c0.8-2.9-0.2-4.2-2.9-4.2c-6.2-0.1-12.4,0-19,0c-0.1,2.4-0.3,4.3-0.4,7c-2.4,0.2-4.9,0.4-7.4,0.5
		c-2.4,0-3.4,0.9-3.3,3.4c0.1,5.2,0.2,10.3-0.2,15.5c-0.2,2.5-1.8,5-1.8,7.5c-0.4,16.4-0.6,32.9-0.8,49.3c-0.1,8.9,0,8.9-8.8,8.9
		c-0.6,0-1.2-0.1-1.8,0c-3,0.4-4.3-0.7-4.2-4c0.1-15.6,0.1-31.2,0-46.8c0-3.5,0.9-7.1-1.7-10.3c-0.6-0.7-0.3-2.1-0.3-3.2
		c-0.1-5.8-0.2-11.5-0.1-17.3c0-2.7-0.9-3.3-3.6-3.2c-8,0.3-16,0.1-23.9,0.1c-0.2-0.4-0.4-0.6-0.5-0.8c-0.5-6.6-0.5-6.7-7.2-6.7
		c-7.4,0-14.9,0.1-22.3,0c-2.4,0-4.9,0.9-7.1-1.9c-0.9-1.2-4.3-0.5-6.6-0.4c-7.6,0.1-7.3-1.6-7.4,6.8c0,0.5-0.1,0.9-0.2,1.6
		c-3.6,0-7.1,0-10.9,0c-0.1-1-0.2-1.9-0.2-2.8c0-6,0.7-5.7-5.6-5.6c-5.3,0-10.6,0.1-15.8,0c-2.4-0.1-3.7,0.6-3.4,3.2
		c0.3,2.3-0.7,3.1-3.1,3c-22.3-0.1-44.6,0-67,0c-12.2,0-24.4-0.1-36.6-0.2c-1.2,0-2.3-0.2-3.7-0.3c-0.1-0.9-0.3-1.6-0.3-2.2
		c0.2-2.7-0.9-3.6-3.6-3.5c-7.4,0.1-14.9,0.1-22.3,0c-3,0-6.1-0.3-9.1-0.2c-2.4,0.1-3.4,0.7-2.9,4c0.9,6.8,0.7,13.9,0.6,20.8
		c-0.1,7.5-0.7,15-0.8,22.6c-0.1,3.5,0.5,7,0.8,10.5c0.2,3-0.9,4.5-4.1,4.3c-3.5-0.2-6.9,0-11,0c0-3.3,0-6.4,0-9.4
		c0-13.8,0-27.6,0.1-41.4c0-2.7,0.4-5.5,0.5-8.2c0.1-2.3-0.7-3.2-3.5-3.1c-6.5,0.4-13,0.2-19.4,0.1c-2.7-0.1-3.9,0.8-4.1,3.6
		c-0.3,4.5-1.2,5.1-5.7,5.1c-10.1-0.1-20.1-0.4-30.2-0.4c-8,0-16.1,0.3-24.1,0.4c-2.3,0-3.8,0.5-3.4,3.3c0.3,2.2-1,2.5-2.8,2.5
		c-11.5,0-23,0-34.6,0c-2.8,0-5.7-0.1-8.5-0.6c-1-0.2-2.3-1.6-2.4-2.6c-0.3-2.3,0-4.8,0-7.2c0-2.8-1.2-4.2-4.1-4.1
		c-2.4,0.1-4.8,0.2-7.2-0.1c-0.9-0.1-2.4-1.2-2.4-1.8C139.2,242.2,139.7,238,140.1,233.3z"/>
</g>
</svg>
